<svg id="my-svg" width="100%" xmlns="http://www.w3.org/2000/svg" xmlns:xlink="http://www.w3.org/1999/xlink" style="max-width: 2256px; background-color: white;" viewBox="-50 -10 2256 2239" role="graphics-document document" aria-roledescription="sequence"><g><rect x="2006" y="2153" fill="#eaeaea" stroke="#666" width="150" height="65" name="T" rx="3" ry="3" class="actor actor-bottom"/><text x="2081" y="2185.5" dominant-baseline="central" alignment-baseline="central" class="actor actor-box" style="text-anchor: middle; font-size: 16px; font-weight: 400;"><tspan x="2081" dy="0">Eligibility Trace</tspan></text></g><g><rect x="1806" y="2153" fill="#eaeaea" stroke="#666" width="150" height="65" name="G" rx="3" ry="3" class="actor actor-bottom"/><text x="1881" y="2185.5" dominant-baseline="central" alignment-baseline="central" class="actor actor-box" style="text-anchor: middle; font-size: 16px; font-weight: 400;"><tspan x="1881" dy="0">Memory Gate</tspan></text></g><g><rect x="1606" y="2153" fill="#eaeaea" stroke="#666" width="150" height="65" name="H" rx="3" ry="3" class="actor actor-bottom"/><text x="1681" y="2185.5" dominant-baseline="central" alignment-baseline="central" class="actor actor-box" style="text-anchor: middle; font-size: 16px; font-weight: 400;"><tspan x="1681" dy="0">Hebbian Learner</tspan></text></g><g><rect x="1406" y="2153" fill="#eaeaea" stroke="#666" width="150" height="65" name="R" rx="3" ry="3" class="actor actor-bottom"/><text x="1481" y="2185.5" dominant-baseline="central" alignment-baseline="central" class="actor actor-box" style="text-anchor: middle; font-size: 16px; font-weight: 400;"><tspan x="1481" dy="0">Retrieval Scorer</tspan></text></g><g><rect x="1206" y="2153" fill="#eaeaea" stroke="#666" width="150" height="65" name="N" rx="3" ry="3" class="actor actor-bottom"/><text x="1281" y="2185.5" dominant-baseline="central" alignment-baseline="central" class="actor actor-box" style="text-anchor: middle; font-size: 16px; font-weight: 400;"><tspan x="1281" dy="0">Neo4j</tspan></text></g><g><rect x="1006" y="2153" fill="#eaeaea" stroke="#666" width="150" height="65" name="Q" rx="3" ry="3" class="actor actor-bottom"/><text x="1081" y="2185.5" dominant-baseline="central" alignment-baseline="central" class="actor actor-box" style="text-anchor: middle; font-size: 16px; font-weight: 400;"><tspan x="1081" dy="0">Qdrant</tspan></text></g><g><rect x="806" y="2153" fill="#eaeaea" stroke="#666" width="150" height="65" name="E" rx="3" ry="3" class="actor actor-bottom"/><text x="881" y="2185.5" dominant-baseline="central" alignment-baseline="central" class="actor actor-box" style="text-anchor: middle; font-size: 16px; font-weight: 400;"><tspan x="881" dy="0">Embedder</tspan></text></g><g><rect x="606" y="2153" fill="#eaeaea" stroke="#666" width="150" height="65" name="O" rx="3" ry="3" class="actor actor-bottom"/><text x="681" y="2185.5" dominant-baseline="central" alignment-baseline="central" class="actor actor-box" style="text-anchor: middle; font-size: 16px; font-weight: 400;"><tspan x="681" dy="0">Orchestra</tspan></text></g><g><rect x="299" y="2153" fill="#eaeaea" stroke="#666" width="150" height="65" name="MCP" rx="3" ry="3" class="actor actor-bottom"/><text x="374" y="2185.5" dominant-baseline="central" alignment-baseline="central" class="actor actor-box" style="text-anchor: middle; font-size: 16px; font-weight: 400;"><tspan x="374" dy="0">MCP Gateway</tspan></text></g><g><rect x="0" y="2153" fill="#eaeaea" stroke="#666" width="150" height="65" name="C" rx="3" ry="3" class="actor actor-bottom"/><text x="75" y="2185.5" dominant-baseline="central" alignment-baseline="central" class="actor actor-box" style="text-anchor: middle; font-size: 16px; font-weight: 400;"><tspan x="75" dy="0">Client</tspan></text></g><g><line id="actor9" x1="2081" y1="65" x2="2081" y2="2153" class="actor-line 200" stroke-width="0.5px" stroke="#999" name="T"/><g id="root-9"><rect x="2006" y="0" fill="#eaeaea" stroke="#666" width="150" height="65" name="T" rx="3" ry="3" class="actor actor-top"/><text x="2081" y="32.5" dominant-baseline="central" alignment-baseline="central" class="actor actor-box" style="text-anchor: middle; font-size: 16px; font-weight: 400;"><tspan x="2081" dy="0">Eligibility Trace</tspan></text></g></g><g><line id="actor8" x1="1881" y1="65" x2="1881" y2="2153" class="actor-line 200" stroke-width="0.5px" stroke="#999" name="G"/><g id="root-8"><rect x="1806" y="0" fill="#eaeaea" stroke="#666" width="150" height="65" name="G" rx="3" ry="3" class="actor actor-top"/><text x="1881" y="32.5" dominant-baseline="central" alignment-baseline="central" class="actor actor-box" style="text-anchor: middle; font-size: 16px; font-weight: 400;"><tspan x="1881" dy="0">Memory Gate</tspan></text></g></g><g><line id="actor7" x1="1681" y1="65" x2="1681" y2="2153" class="actor-line 200" stroke-width="0.5px" stroke="#999" name="H"/><g id="root-7"><rect x="1606" y="0" fill="#eaeaea" stroke="#666" width="150" height="65" name="H" rx="3" ry="3" class="actor actor-top"/><text x="1681" y="32.5" dominant-baseline="central" alignment-baseline="central" class="actor actor-box" style="text-anchor: middle; font-size: 16px; font-weight: 400;"><tspan x="1681" dy="0">Hebbian Learner</tspan></text></g></g><g><line id="actor6" x1="1481" y1="65" x2="1481" y2="2153" class="actor-line 200" stroke-width="0.5px" stroke="#999" name="R"/><g id="root-6"><rect x="1406" y="0" fill="#eaeaea" stroke="#666" width="150" height="65" name="R" rx="3" ry="3" class="actor actor-top"/><text x="1481" y="32.5" dominant-baseline="central" alignment-baseline="central" class="actor actor-box" style="text-anchor: middle; font-size: 16px; font-weight: 400;"><tspan x="1481" dy="0">Retrieval Scorer</tspan></text></g></g><g><line id="actor5" x1="1281" y1="65" x2="1281" y2="2153" class="actor-line 200" stroke-width="0.5px" stroke="#999" name="N"/><g id="root-5"><rect x="1206" y="0" fill="#eaeaea" stroke="#666" width="150" height="65" name="N" rx="3" ry="3" class="actor actor-top"/><text x="1281" y="32.5" dominant-baseline="central" alignment-baseline="central" class="actor actor-box" style="text-anchor: middle; font-size: 16px; font-weight: 400;"><tspan x="1281" dy="0">Neo4j</tspan></text></g></g><g><line id="actor4" x1="1081" y1="65" x2="1081" y2="2153" class="actor-line 200" stroke-width="0.5px" stroke="#999" name="Q"/><g id="root-4"><rect x="1006" y="0" fill="#eaeaea" stroke="#666" width="150" height="65" name="Q" rx="3" ry="3" class="actor actor-top"/><text x="1081" y="32.5" dominant-baseline="central" alignment-baseline="central" class="actor actor-box" style="text-anchor: middle; font-size: 16px; font-weight: 400;"><tspan x="1081" dy="0">Qdrant</tspan></text></g></g><g><line id="actor3" x1="881" y1="65" x2="881" y2="2153" class="actor-line 200" stroke-width="0.5px" stroke="#999" name="E"/><g id="root-3"><rect x="806" y="0" fill="#eaeaea" stroke="#666" width="150" height="65" name="E" rx="3" ry="3" class="actor actor-top"/><text x="881" y="32.5" dominant-baseline="central" alignment-baseline="central" class="actor actor-box" style="text-anchor: middle; font-size: 16px; font-weight: 400;"><tspan x="881" dy="0">Embedder</tspan></text></g></g><g><line id="actor2" x1="681" y1="65" x2="681" y2="2153" class="actor-line 200" stroke-width="0.5px" stroke="#999" name="O"/><g id="root-2"><rect x="606" y="0" fill="#eaeaea" stroke="#666" width="150" height="65" name="O" rx="3" ry="3" class="actor actor-top"/><text x="681" y="32.5" dominant-baseline="central" alignment-baseline="central" class="actor actor-box" style="text-anchor: middle; font-size: 16px; font-weight: 400;"><tspan x="681" dy="0">Orchestra</tspan></text></g></g><g><line id="actor1" x1="374" y1="65" x2="374" y2="2153" class="actor-line 200" stroke-width="0.5px" stroke="#999" name="MCP"/><g id="root-1"><rect x="299" y="0" fill="#eaeaea" stroke="#666" width="150" height="65" name="MCP" rx="3" ry="3" class="actor actor-top"/><text x="374" y="32.5" dominant-baseline="central" alignment-baseline="central" class="actor actor-box" style="text-anchor: middle; font-size: 16px; font-weight: 400;"><tspan x="374" dy="0">MCP Gateway</tspan></text></g></g><g><line id="actor0" x1="75" y1="65" x2="75" y2="2153" class="actor-line 200" stroke-width="0.5px" stroke="#999" name="C"/><g id="root-0"><rect x="0" y="0" fill="#eaeaea" stroke="#666" width="150" height="65" name="C" rx="3" ry="3" class="actor actor-top"/><text x="75" y="32.5" dominant-baseline="central" alignment-baseline="central" class="actor actor-box" style="text-anchor: middle; font-size: 16px; font-weight: 400;"><tspan x="75" dy="0">Client</tspan></text></g></g><style>#my-svg{font-family:"trebuchet ms",verdana,arial,sans-serif;font-size:16px;fill:#ccc;}@keyframes edge-animation-frame{from{stroke-dashoffset:0;}}@keyframes dash{to{stroke-dashoffset:0;}}#my-svg .edge-animation-slow{stroke-dasharray:9,5!important;stroke-dashoffset:900;animation:dash 50s linear infinite;stroke-linecap:round;}#my-svg .edge-animation-fast{stroke-dasharray:9,5!important;stroke-dashoffset:900;animation:dash 20s linear infinite;stroke-linecap:round;}#my-svg .error-icon{fill:#a44141;}#my-svg .error-text{fill:#ddd;stroke:#ddd;}#my-svg .edge-thickness-normal{stroke-width:1px;}#my-svg .edge-thickness-thick{stroke-width:3.5px;}#my-svg .edge-pattern-solid{stroke-dasharray:0;}#my-svg .edge-thickness-invisible{stroke-width:0;fill:none;}#my-svg .edge-pattern-dashed{stroke-dasharray:3;}#my-svg .edge-pattern-dotted{stroke-dasharray:2;}#my-svg .marker{fill:#a0a0b0;stroke:#a0a0b0;}#my-svg .marker.cross{stroke:#a0a0b0;}#my-svg svg{font-family:"trebuchet ms",verdana,arial,sans-serif;font-size:16px;}#my-svg p{margin:0;}#my-svg .actor{stroke:#ccc;fill:#1f2020;}#my-svg text.actor&gt;tspan{fill:lightgrey;stroke:none;}#my-svg .actor-line{stroke:#ccc;}#my-svg .innerArc{stroke-width:1.5;stroke-dasharray:none;}#my-svg .messageLine0{stroke-width:1.5;stroke-dasharray:none;stroke:lightgrey;}#my-svg .messageLine1{stroke-width:1.5;stroke-dasharray:2,2;stroke:lightgrey;}#my-svg #arrowhead path{fill:lightgrey;stroke:lightgrey;}#my-svg .sequenceNumber{fill:black;}#my-svg #sequencenumber{fill:lightgrey;}#my-svg #crosshead path{fill:lightgrey;stroke:lightgrey;}#my-svg .messageText{fill:lightgrey;stroke:none;}#my-svg .labelBox{stroke:#ccc;fill:#1f2020;}#my-svg .labelText,#my-svg .labelText&gt;tspan{fill:lightgrey;stroke:none;}#my-svg .loopText,#my-svg .loopText&gt;tspan{fill:lightgrey;stroke:none;}#my-svg .loopLine{stroke-width:2px;stroke-dasharray:2,2;stroke:#ccc;fill:#ccc;}#my-svg .note{stroke:hsl(180, 0%, 18.3529411765%);fill:hsl(180, 1.5873015873%, 28.3529411765%);}#my-svg .noteText,#my-svg .noteText&gt;tspan{fill:rgb(183.8476190475, 181.5523809523, 181.5523809523);stroke:none;}#my-svg .activation0{fill:hsl(180, 1.5873015873%, 28.3529411765%);stroke:#ccc;}#my-svg .activation1{fill:hsl(180, 1.5873015873%, 28.3529411765%);stroke:#ccc;}#my-svg .activation2{fill:hsl(180, 1.5873015873%, 28.3529411765%);stroke:#ccc;}#my-svg .actorPopupMenu{position:absolute;}#my-svg .actorPopupMenuPanel{position:absolute;fill:#1f2020;box-shadow:0px 8px 16px 0px rgba(0,0,0,0.2);filter:drop-shadow(3px 5px 2px rgb(0 0 0 / 0.4));}#my-svg .actor-man line{stroke:#ccc;fill:#1f2020;}#my-svg .actor-man circle,#my-svg line{stroke:#ccc;fill:#1f2020;stroke-width:2px;}#my-svg :root{--mermaid-font-family:"trebuchet ms",verdana,arial,sans-serif;}</style><g/><defs><symbol id="computer" width="24" height="24"><path transform="scale(.5)" d="M2 2v13h20v-13h-20zm18 11h-16v-9h16v9zm-10.228 6l.466-1h3.524l.467 1h-4.457zm14.228 3h-24l2-6h2.104l-1.33 4h18.45l-1.297-4h2.073l2 6zm-5-10h-14v-7h14v7z"/></symbol></defs><defs><symbol id="database" fill-rule="evenodd" clip-rule="evenodd"><path transform="scale(.5)" d="M12.258.001l.256.004.255.005.253.008.251.01.249.012.247.015.246.016.242.019.241.02.239.023.236.024.233.027.231.028.229.031.225.032.223.034.22.036.217.038.214.04.211.041.208.043.205.045.201.046.198.048.194.05.191.051.187.053.183.054.18.056.175.057.172.059.168.06.163.061.16.063.155.064.15.066.074.033.073.033.071.034.07.034.069.035.068.035.067.035.066.035.064.036.064.036.062.036.06.036.06.037.058.037.058.037.055.038.055.038.053.038.052.038.051.039.05.039.048.039.047.039.045.04.044.04.043.04.041.04.04.041.039.041.037.041.036.041.034.041.033.042.032.042.03.042.029.042.027.042.026.043.024.043.023.043.021.043.02.043.018.044.017.043.015.044.013.044.012.044.011.045.009.044.007.045.006.045.004.045.002.045.001.045v17l-.001.045-.002.045-.004.045-.006.045-.007.045-.009.044-.011.045-.012.044-.013.044-.015.044-.017.043-.018.044-.02.043-.021.043-.023.043-.024.043-.026.043-.027.042-.029.042-.03.042-.032.042-.033.042-.034.041-.036.041-.037.041-.039.041-.04.041-.041.04-.043.04-.044.04-.045.04-.047.039-.048.039-.05.039-.051.039-.052.038-.053.038-.055.038-.055.038-.058.037-.058.037-.06.037-.06.036-.062.036-.064.036-.064.036-.066.035-.067.035-.068.035-.069.035-.07.034-.071.034-.073.033-.074.033-.15.066-.155.064-.16.063-.163.061-.168.06-.172.059-.175.057-.18.056-.183.054-.187.053-.191.051-.194.05-.198.048-.201.046-.205.045-.208.043-.211.041-.214.04-.217.038-.22.036-.223.034-.225.032-.229.031-.231.028-.233.027-.236.024-.239.023-.241.02-.242.019-.246.016-.247.015-.249.012-.251.01-.253.008-.255.005-.256.004-.258.001-.258-.001-.256-.004-.255-.005-.253-.008-.251-.01-.249-.012-.247-.015-.245-.016-.243-.019-.241-.02-.238-.023-.236-.024-.234-.027-.231-.028-.228-.031-.226-.032-.223-.034-.22-.036-.217-.038-.214-.04-.211-.041-.208-.043-.204-.045-.201-.046-.198-.048-.195-.05-.19-.051-.187-.053-.184-.054-.179-.056-.176-.057-.172-.059-.167-.06-.164-.061-.159-.063-.155-.064-.151-.066-.074-.033-.072-.033-.072-.034-.07-.034-.069-.035-.068-.035-.067-.035-.066-.035-.064-.036-.063-.036-.062-.036-.061-.036-.06-.037-.058-.037-.057-.037-.056-.038-.055-.038-.053-.038-.052-.038-.051-.039-.049-.039-.049-.039-.046-.039-.046-.04-.044-.04-.043-.04-.041-.04-.04-.041-.039-.041-.037-.041-.036-.041-.034-.041-.033-.042-.032-.042-.03-.042-.029-.042-.027-.042-.026-.043-.024-.043-.023-.043-.021-.043-.02-.043-.018-.044-.017-.043-.015-.044-.013-.044-.012-.044-.011-.045-.009-.044-.007-.045-.006-.045-.004-.045-.002-.045-.001-.045v-17l.001-.045.002-.045.004-.045.006-.045.007-.045.009-.044.011-.045.012-.044.013-.044.015-.044.017-.043.018-.044.02-.043.021-.043.023-.043.024-.043.026-.043.027-.042.029-.042.03-.042.032-.042.033-.042.034-.041.036-.041.037-.041.039-.041.04-.041.041-.04.043-.04.044-.04.046-.04.046-.039.049-.039.049-.039.051-.039.052-.038.053-.038.055-.038.056-.038.057-.037.058-.037.06-.037.061-.036.062-.036.063-.036.064-.036.066-.035.067-.035.068-.035.069-.035.07-.034.072-.034.072-.033.074-.033.151-.066.155-.064.159-.063.164-.061.167-.06.172-.059.176-.057.179-.056.184-.054.187-.053.19-.051.195-.05.198-.048.201-.046.204-.045.208-.043.211-.041.214-.04.217-.038.22-.036.223-.034.226-.032.228-.031.231-.028.234-.027.236-.024.238-.023.241-.02.243-.019.245-.016.247-.015.249-.012.251-.01.253-.008.255-.005.256-.004.258-.001.258.001zm-9.258 20.499v.01l.001.021.003.021.004.022.005.021.006.022.007.022.009.023.01.022.011.023.012.023.013.023.015.023.016.024.017.023.018.024.019.024.021.024.022.025.023.024.024.025.052.049.056.05.061.051.066.051.07.051.075.051.079.052.084.052.088.052.092.052.097.052.102.051.105.052.11.052.114.051.119.051.123.051.127.05.131.05.135.05.139.048.144.049.147.047.152.047.155.047.16.045.163.045.167.043.171.043.176.041.178.041.183.039.187.039.19.037.194.035.197.035.202.033.204.031.209.03.212.029.216.027.219.025.222.024.226.021.23.02.233.018.236.016.24.015.243.012.246.01.249.008.253.005.256.004.259.001.26-.001.257-.004.254-.005.25-.008.247-.011.244-.012.241-.014.237-.016.233-.018.231-.021.226-.021.224-.024.22-.026.216-.027.212-.028.21-.031.205-.031.202-.034.198-.034.194-.036.191-.037.187-.039.183-.04.179-.04.175-.042.172-.043.168-.044.163-.045.16-.046.155-.046.152-.047.148-.048.143-.049.139-.049.136-.05.131-.05.126-.05.123-.051.118-.052.114-.051.11-.052.106-.052.101-.052.096-.052.092-.052.088-.053.083-.051.079-.052.074-.052.07-.051.065-.051.06-.051.056-.05.051-.05.023-.024.023-.025.021-.024.02-.024.019-.024.018-.024.017-.024.015-.023.014-.024.013-.023.012-.023.01-.023.01-.022.008-.022.006-.022.006-.022.004-.022.004-.021.001-.021.001-.021v-4.127l-.077.055-.08.053-.083.054-.085.053-.087.052-.09.052-.093.051-.095.05-.097.05-.1.049-.102.049-.105.048-.106.047-.109.047-.111.046-.114.045-.115.045-.118.044-.12.043-.122.042-.124.042-.126.041-.128.04-.13.04-.132.038-.134.038-.135.037-.138.037-.139.035-.142.035-.143.034-.144.033-.147.032-.148.031-.15.03-.151.03-.153.029-.154.027-.156.027-.158.026-.159.025-.161.024-.162.023-.163.022-.165.021-.166.02-.167.019-.169.018-.169.017-.171.016-.173.015-.173.014-.175.013-.175.012-.177.011-.178.01-.179.008-.179.008-.181.006-.182.005-.182.004-.184.003-.184.002h-.37l-.184-.002-.184-.003-.182-.004-.182-.005-.181-.006-.179-.008-.179-.008-.178-.01-.176-.011-.176-.012-.175-.013-.173-.014-.172-.015-.171-.016-.17-.017-.169-.018-.167-.019-.166-.02-.165-.021-.163-.022-.162-.023-.161-.024-.159-.025-.157-.026-.156-.027-.155-.027-.153-.029-.151-.03-.15-.03-.148-.031-.146-.032-.145-.033-.143-.034-.141-.035-.14-.035-.137-.037-.136-.037-.134-.038-.132-.038-.13-.04-.128-.04-.126-.041-.124-.042-.122-.042-.12-.044-.117-.043-.116-.045-.113-.045-.112-.046-.109-.047-.106-.047-.105-.048-.102-.049-.1-.049-.097-.05-.095-.05-.093-.052-.09-.051-.087-.052-.085-.053-.083-.054-.08-.054-.077-.054v4.127zm0-5.654v.011l.001.021.003.021.004.021.005.022.006.022.007.022.009.022.01.022.011.023.012.023.013.023.015.024.016.023.017.024.018.024.019.024.021.024.022.024.023.025.024.024.052.05.056.05.061.05.066.051.07.051.075.052.079.051.084.052.088.052.092.052.097.052.102.052.105.052.11.051.114.051.119.052.123.05.127.051.131.05.135.049.139.049.144.048.147.048.152.047.155.046.16.045.163.045.167.044.171.042.176.042.178.04.183.04.187.038.19.037.194.036.197.034.202.033.204.032.209.03.212.028.216.027.219.025.222.024.226.022.23.02.233.018.236.016.24.014.243.012.246.01.249.008.253.006.256.003.259.001.26-.001.257-.003.254-.006.25-.008.247-.01.244-.012.241-.015.237-.016.233-.018.231-.02.226-.022.224-.024.22-.025.216-.027.212-.029.21-.03.205-.032.202-.033.198-.035.194-.036.191-.037.187-.039.183-.039.179-.041.175-.042.172-.043.168-.044.163-.045.16-.045.155-.047.152-.047.148-.048.143-.048.139-.05.136-.049.131-.05.126-.051.123-.051.118-.051.114-.052.11-.052.106-.052.101-.052.096-.052.092-.052.088-.052.083-.052.079-.052.074-.051.07-.052.065-.051.06-.05.056-.051.051-.049.023-.025.023-.024.021-.025.02-.024.019-.024.018-.024.017-.024.015-.023.014-.023.013-.024.012-.022.01-.023.01-.023.008-.022.006-.022.006-.022.004-.021.004-.022.001-.021.001-.021v-4.139l-.077.054-.08.054-.083.054-.085.052-.087.053-.09.051-.093.051-.095.051-.097.05-.1.049-.102.049-.105.048-.106.047-.109.047-.111.046-.114.045-.115.044-.118.044-.12.044-.122.042-.124.042-.126.041-.128.04-.13.039-.132.039-.134.038-.135.037-.138.036-.139.036-.142.035-.143.033-.144.033-.147.033-.148.031-.15.03-.151.03-.153.028-.154.028-.156.027-.158.026-.159.025-.161.024-.162.023-.163.022-.165.021-.166.02-.167.019-.169.018-.169.017-.171.016-.173.015-.173.014-.175.013-.175.012-.177.011-.178.009-.179.009-.179.007-.181.007-.182.005-.182.004-.184.003-.184.002h-.37l-.184-.002-.184-.003-.182-.004-.182-.005-.181-.007-.179-.007-.179-.009-.178-.009-.176-.011-.176-.012-.175-.013-.173-.014-.172-.015-.171-.016-.17-.017-.169-.018-.167-.019-.166-.02-.165-.021-.163-.022-.162-.023-.161-.024-.159-.025-.157-.026-.156-.027-.155-.028-.153-.028-.151-.03-.15-.03-.148-.031-.146-.033-.145-.033-.143-.033-.141-.035-.14-.036-.137-.036-.136-.037-.134-.038-.132-.039-.13-.039-.128-.04-.126-.041-.124-.042-.122-.043-.12-.043-.117-.044-.116-.044-.113-.046-.112-.046-.109-.046-.106-.047-.105-.048-.102-.049-.1-.049-.097-.05-.095-.051-.093-.051-.09-.051-.087-.053-.085-.052-.083-.054-.08-.054-.077-.054v4.139zm0-5.666v.011l.001.02.003.022.004.021.005.022.006.021.007.022.009.023.01.022.011.023.012.023.013.023.015.023.016.024.017.024.018.023.019.024.021.025.022.024.023.024.024.025.052.05.056.05.061.05.066.051.07.051.075.052.079.051.084.052.088.052.092.052.097.052.102.052.105.051.11.052.114.051.119.051.123.051.127.05.131.05.135.05.139.049.144.048.147.048.152.047.155.046.16.045.163.045.167.043.171.043.176.042.178.04.183.04.187.038.19.037.194.036.197.034.202.033.204.032.209.03.212.028.216.027.219.025.222.024.226.021.23.02.233.018.236.017.24.014.243.012.246.01.249.008.253.006.256.003.259.001.26-.001.257-.003.254-.006.25-.008.247-.01.244-.013.241-.014.237-.016.233-.018.231-.02.226-.022.224-.024.22-.025.216-.027.212-.029.21-.03.205-.032.202-.033.198-.035.194-.036.191-.037.187-.039.183-.039.179-.041.175-.042.172-.043.168-.044.163-.045.16-.045.155-.047.152-.047.148-.048.143-.049.139-.049.136-.049.131-.051.126-.05.123-.051.118-.052.114-.051.11-.052.106-.052.101-.052.096-.052.092-.052.088-.052.083-.052.079-.052.074-.052.07-.051.065-.051.06-.051.056-.05.051-.049.023-.025.023-.025.021-.024.02-.024.019-.024.018-.024.017-.024.015-.023.014-.024.013-.023.012-.023.01-.022.01-.023.008-.022.006-.022.006-.022.004-.022.004-.021.001-.021.001-.021v-4.153l-.077.054-.08.054-.083.053-.085.053-.087.053-.09.051-.093.051-.095.051-.097.05-.1.049-.102.048-.105.048-.106.048-.109.046-.111.046-.114.046-.115.044-.118.044-.12.043-.122.043-.124.042-.126.041-.128.04-.13.039-.132.039-.134.038-.135.037-.138.036-.139.036-.142.034-.143.034-.144.033-.147.032-.148.032-.15.03-.151.03-.153.028-.154.028-.156.027-.158.026-.159.024-.161.024-.162.023-.163.023-.165.021-.166.02-.167.019-.169.018-.169.017-.171.016-.173.015-.173.014-.175.013-.175.012-.177.01-.178.01-.179.009-.179.007-.181.006-.182.006-.182.004-.184.003-.184.001-.185.001-.185-.001-.184-.001-.184-.003-.182-.004-.182-.006-.181-.006-.179-.007-.179-.009-.178-.01-.176-.01-.176-.012-.175-.013-.173-.014-.172-.015-.171-.016-.17-.017-.169-.018-.167-.019-.166-.02-.165-.021-.163-.023-.162-.023-.161-.024-.159-.024-.157-.026-.156-.027-.155-.028-.153-.028-.151-.03-.15-.03-.148-.032-.146-.032-.145-.033-.143-.034-.141-.034-.14-.036-.137-.036-.136-.037-.134-.038-.132-.039-.13-.039-.128-.041-.126-.041-.124-.041-.122-.043-.12-.043-.117-.044-.116-.044-.113-.046-.112-.046-.109-.046-.106-.048-.105-.048-.102-.048-.1-.05-.097-.049-.095-.051-.093-.051-.09-.052-.087-.052-.085-.053-.083-.053-.08-.054-.077-.054v4.153zm8.74-8.179l-.257.004-.254.005-.25.008-.247.011-.244.012-.241.014-.237.016-.233.018-.231.021-.226.022-.224.023-.22.026-.216.027-.212.028-.21.031-.205.032-.202.033-.198.034-.194.036-.191.038-.187.038-.183.04-.179.041-.175.042-.172.043-.168.043-.163.045-.16.046-.155.046-.152.048-.148.048-.143.048-.139.049-.136.05-.131.05-.126.051-.123.051-.118.051-.114.052-.11.052-.106.052-.101.052-.096.052-.092.052-.088.052-.083.052-.079.052-.074.051-.07.052-.065.051-.06.05-.056.05-.051.05-.023.025-.023.024-.021.024-.02.025-.019.024-.018.024-.017.023-.015.024-.014.023-.013.023-.012.023-.01.023-.01.022-.008.022-.006.023-.006.021-.004.022-.004.021-.001.021-.001.021.001.021.001.021.004.021.004.022.006.021.006.023.008.022.01.022.01.023.012.023.013.023.014.023.015.024.017.023.018.024.019.024.02.025.021.024.023.024.023.025.051.05.056.05.06.05.065.051.07.052.074.051.079.052.083.052.088.052.092.052.096.052.101.052.106.052.11.052.114.052.118.051.123.051.126.051.131.05.136.05.139.049.143.048.148.048.152.048.155.046.16.046.163.045.168.043.172.043.175.042.179.041.183.04.187.038.191.038.194.036.198.034.202.033.205.032.21.031.212.028.216.027.22.026.224.023.226.022.231.021.233.018.237.016.241.014.244.012.247.011.25.008.254.005.257.004.26.001.26-.001.257-.004.254-.005.25-.008.247-.011.244-.012.241-.014.237-.016.233-.018.231-.021.226-.022.224-.023.22-.026.216-.027.212-.028.21-.031.205-.032.202-.033.198-.034.194-.036.191-.038.187-.038.183-.04.179-.041.175-.042.172-.043.168-.043.163-.045.16-.046.155-.046.152-.048.148-.048.143-.048.139-.049.136-.05.131-.05.126-.051.123-.051.118-.051.114-.052.11-.052.106-.052.101-.052.096-.052.092-.052.088-.052.083-.052.079-.052.074-.051.07-.052.065-.051.06-.05.056-.05.051-.05.023-.025.023-.024.021-.024.02-.025.019-.024.018-.024.017-.023.015-.024.014-.023.013-.023.012-.023.01-.023.01-.022.008-.022.006-.023.006-.021.004-.022.004-.021.001-.021.001-.021-.001-.021-.001-.021-.004-.021-.004-.022-.006-.021-.006-.023-.008-.022-.01-.022-.01-.023-.012-.023-.013-.023-.014-.023-.015-.024-.017-.023-.018-.024-.019-.024-.02-.025-.021-.024-.023-.024-.023-.025-.051-.05-.056-.05-.06-.05-.065-.051-.07-.052-.074-.051-.079-.052-.083-.052-.088-.052-.092-.052-.096-.052-.101-.052-.106-.052-.11-.052-.114-.052-.118-.051-.123-.051-.126-.051-.131-.05-.136-.05-.139-.049-.143-.048-.148-.048-.152-.048-.155-.046-.16-.046-.163-.045-.168-.043-.172-.043-.175-.042-.179-.041-.183-.04-.187-.038-.191-.038-.194-.036-.198-.034-.202-.033-.205-.032-.21-.031-.212-.028-.216-.027-.22-.026-.224-.023-.226-.022-.231-.021-.233-.018-.237-.016-.241-.014-.244-.012-.247-.011-.25-.008-.254-.005-.257-.004-.26-.001-.26.001z"/></symbol></defs><defs><symbol id="clock" width="24" height="24"><path transform="scale(.5)" d="M12 2c5.514 0 10 4.486 10 10s-4.486 10-10 10-10-4.486-10-10 4.486-10 10-10zm0-2c-6.627 0-12 5.373-12 12s5.373 12 12 12 12-5.373 12-12-5.373-12-12-12zm5.848 12.459c.202.038.202.333.001.372-1.907.361-6.045 1.111-6.547 1.111-.719 0-1.301-.582-1.301-1.301 0-.512.77-5.447 1.125-7.445.034-.192.312-.181.343.014l.985 6.238 5.394 1.011z"/></symbol></defs><defs><marker id="arrowhead" refX="7.9" refY="5" markerUnits="userSpaceOnUse" markerWidth="12" markerHeight="12" orient="auto-start-reverse"><path d="M -1 0 L 10 5 L 0 10 z"/></marker></defs><defs><marker id="crosshead" markerWidth="15" markerHeight="8" orient="auto" refX="4" refY="4.5"><path fill="none" stroke="#000000" stroke-width="1pt" d="M 1,2 L 6,7 M 6,2 L 1,7" style="stroke-dasharray: 0, 0;"/></marker></defs><defs><marker id="filled-head" refX="15.5" refY="7" markerWidth="20" markerHeight="28" orient="auto"><path d="M 18,7 L9,13 L14,7 L9,1 Z"/></marker></defs><defs><marker id="sequencenumber" refX="15" refY="15" markerWidth="60" markerHeight="40" orient="auto"><circle cx="15" cy="15" r="6"/></marker></defs><g/><g><rect x="676" y="235" fill="#EDF2AE" stroke="#666" width="10" height="42" class="activation0"/></g><g><rect x="876" y="325" fill="#EDF2AE" stroke="#666" width="10" height="44" class="activation0"/></g><g><rect x="1076" y="417" fill="#EDF2AE" stroke="#666" width="10" height="118" class="activation0"/></g><g><rect x="1276" y="583" fill="#EDF2AE" stroke="#666" width="10" height="120" class="activation0"/></g><g><rect x="1476" y="796" fill="#EDF2AE" stroke="#666" width="10" height="346" class="activation0"/></g><g><line x1="359" y1="713" x2="1577" y2="713" class="loopLine"/><line x1="1577" y1="713" x2="1577" y2="1152" class="loopLine"/><line x1="359" y1="1152" x2="1577" y2="1152" class="loopLine"/><line x1="359" y1="713" x2="359" y2="1152" class="loopLine"/><polygon points="359,713 409,713 409,726 400.6,733 359,733" class="labelBox"/><text x="384" y="726" text-anchor="middle" dominant-baseline="middle" alignment-baseline="middle" class="labelText" style="font-size: 16px; font-weight: 400;">loop</text><text x="993" y="731" text-anchor="middle" class="loopText" style="font-size: 16px; font-weight: 400;"><tspan x="993">[For each candidate]</tspan></text></g><g><rect x="1676" y="1442" fill="#EDF2AE" stroke="#666" width="10" height="120" class="activation0"/></g><g><line x1="359" y1="1359" x2="1793.5" y2="1359" class="loopLine"/><line x1="1793.5" y1="1359" x2="1793.5" y2="1572" class="loopLine"/><line x1="359" y1="1572" x2="1793.5" y2="1572" class="loopLine"/><line x1="359" y1="1359" x2="359" y2="1572" class="loopLine"/><polygon points="359,1359 409,1359 409,1372 400.6,1379 359,1379" class="labelBox"/><text x="384" y="1372" text-anchor="middle" dominant-baseline="middle" alignment-baseline="middle" class="labelText" style="font-size: 16px; font-weight: 400;">loop</text><text x="1101.25" y="1377" text-anchor="middle" class="loopText" style="font-size: 16px; font-weight: 400;"><tspan x="1101.25">[For each result pair]</tspan></text></g><g><rect x="2076" y="1710" fill="#EDF2AE" stroke="#666" width="10" height="44" class="activation0"/></g><g><line x1="359" y1="1627" x2="2096" y2="1627" class="loopLine"/><line x1="2096" y1="1627" x2="2096" y2="1764" class="loopLine"/><line x1="359" y1="1764" x2="2096" y2="1764" class="loopLine"/><line x1="359" y1="1627" x2="359" y2="1764" class="loopLine"/><polygon points="359,1627 409,1627 409,1640 400.6,1647 359,1647" class="labelBox"/><text x="384" y="1640" text-anchor="middle" dominant-baseline="middle" alignment-baseline="middle" class="labelText" style="font-size: 16px; font-weight: 400;">loop</text><text x="1252.5" y="1645" text-anchor="middle" class="loopText" style="font-size: 16px; font-weight: 400;"><tspan x="1252.5">[For each result]</tspan></text></g><g><rect x="1876" y="1902" fill="#EDF2AE" stroke="#666" width="10" height="120" class="activation0"/></g><g><line x1="359" y1="1819" x2="1971" y2="1819" class="loopLine"/><line x1="1971" y1="1819" x2="1971" y2="2032" class="loopLine"/><line x1="359" y1="2032" x2="1971" y2="2032" class="loopLine"/><line x1="359" y1="1819" x2="359" y2="2032" class="loopLine"/><polygon points="359,1819 409,1819 409,1832 400.6,1839 359,1839" class="labelBox"/><text x="384" y="1832" text-anchor="middle" dominant-baseline="middle" alignment-baseline="middle" class="labelText" style="font-size: 16px; font-weight: 400;">loop</text><text x="1190" y="1837" text-anchor="middle" class="loopText" style="font-size: 16px; font-weight: 400;"><tspan x="1190">[For each result]</tspan></text></g><g><line x1="349" y1="1314" x2="2106" y2="1314" class="loopLine"/><line x1="2106" y1="1314" x2="2106" y2="2042" class="loopLine"/><line x1="349" y1="2042" x2="2106" y2="2042" class="loopLine"/><line x1="349" y1="1314" x2="349" y2="2042" class="loopLine"/><line x1="349" y1="1587" x2="2106" y2="1587" class="loopLine" style="stroke-dasharray: 3, 3;"/><line x1="349" y1="1779" x2="2106" y2="1779" class="loopLine" style="stroke-dasharray: 3, 3;"/><polygon points="349,1314 399,1314 399,1327 390.6,1334 349,1334" class="labelBox"/><text x="374" y="1327" text-anchor="middle" dominant-baseline="middle" alignment-baseline="middle" class="labelText" style="font-size: 16px; font-weight: 400;">par</text><text x="1252.5" y="1332" text-anchor="middle" class="loopText" style="font-size: 16px; font-weight: 400;"><tspan x="1252.5">[Update Hebbian weights]</tspan></text><text x="1227.5" y="1605" text-anchor="middle" class="loopText" style="font-size: 16px; font-weight: 400;">[Update eligibility traces]</text><text x="1227.5" y="1797" text-anchor="middle" class="loopText" style="font-size: 16px; font-weight: 400;">[Update gate feedback]</text></g><g><rect x="1656" y="2096" fill="#EDF2AE" stroke="#666" width="250" height="37" class="note"/><text x="1781" y="2101" text-anchor="middle" dominant-baseline="middle" alignment-baseline="middle" class="noteText" dy="1em" style="font-size: 16px; font-weight: 400;"><tspan x="1781">Retrieval triggers learning updates</tspan></text></g><text x="221" y="80" text-anchor="middle" dominant-baseline="middle" alignment-baseline="middle" class="messageText" dy="1em" style="font-size: 16px; font-weight: 400;">retrieve_memories(query, limit=10)</text><line x1="76" y1="111" x2="366" y2="111" class="messageLine0" stroke-width="2" stroke="none" marker-end="url(#arrowhead)" style="fill: none;"/><line x1="76" y1="111" x2="76" y2="111" stroke-width="0" marker-start="url(#sequencenumber)"/><text x="76" y="115" font-family="sans-serif" font-size="12px" text-anchor="middle" class="sequenceNumber">1</text><text x="379" y="126" text-anchor="middle" dominant-baseline="middle" alignment-baseline="middle" class="messageText" dy="1em" style="font-size: 16px; font-weight: 400;">validate_input()</text><path d="M 379,157 C 439,147 439,187 379,177" class="messageLine0" stroke-width="2" stroke="none" marker-end="url(#arrowhead)" style="fill: none;"/><line x1="379" y1="157" x2="379" y2="157" stroke-width="0" marker-start="url(#sequencenumber)"/><text x="379" y="161" font-family="sans-serif" font-size="12px" text-anchor="middle" class="sequenceNumber">2</text><text x="526" y="202" text-anchor="middle" dominant-baseline="middle" alignment-baseline="middle" class="messageText" dy="1em" style="font-size: 16px; font-weight: 400;">get_state()</text><line x1="379" y1="233" x2="673" y2="233" class="messageLine0" stroke-width="2" stroke="none" marker-end="url(#arrowhead)" style="fill: none;"/><line x1="379" y1="233" x2="379" y2="233" stroke-width="0" marker-start="url(#sequencenumber)"/><text x="379" y="237" font-family="sans-serif" font-size="12px" text-anchor="middle" class="sequenceNumber">3</text><text x="529" y="248" text-anchor="middle" dominant-baseline="middle" alignment-baseline="middle" class="messageText" dy="1em" style="font-size: 16px; font-weight: 400;">NeuroState{ACh=0.3 RETRIEVAL}</text><line x1="676" y1="277" x2="382" y2="277" class="messageLine1" stroke-width="2" stroke="none" marker-end="url(#arrowhead)" style="stroke-dasharray: 3, 3; fill: none;"/><line x1="676" y1="277" x2="676" y2="277" stroke-width="0" marker-start="url(#sequencenumber)"/><text x="676" y="281" font-family="sans-serif" font-size="12px" text-anchor="middle" class="sequenceNumber">4</text><text x="626" y="292" text-anchor="middle" dominant-baseline="middle" alignment-baseline="middle" class="messageText" dy="1em" style="font-size: 16px; font-weight: 400;">embed(query)</text><line x1="379" y1="323" x2="873" y2="323" class="messageLine0" stroke-width="2" stroke="none" marker-end="url(#arrowhead)" style="fill: none;"/><line x1="379" y1="323" x2="379" y2="323" stroke-width="0" marker-start="url(#sequencenumber)"/><text x="379" y="327" font-family="sans-serif" font-size="12px" text-anchor="middle" class="sequenceNumber">5</text><text x="629" y="338" text-anchor="middle" dominant-baseline="middle" alignment-baseline="middle" class="messageText" dy="1em" style="font-size: 16px; font-weight: 400;">query_vector[1024]</text><line x1="876" y1="369" x2="382" y2="369" class="messageLine1" stroke-width="2" stroke="none" marker-end="url(#arrowhead)" style="stroke-dasharray: 3, 3; fill: none;"/><line x1="876" y1="369" x2="876" y2="369" stroke-width="0" marker-start="url(#sequencenumber)"/><text x="876" y="373" font-family="sans-serif" font-size="12px" text-anchor="middle" class="sequenceNumber">6</text><text x="726" y="384" text-anchor="middle" dominant-baseline="middle" alignment-baseline="middle" class="messageText" dy="1em" style="font-size: 16px; font-weight: 400;">search(query_vector, limit=50)</text><line x1="379" y1="415" x2="1073" y2="415" class="messageLine0" stroke-width="2" stroke="none" marker-end="url(#arrowhead)" style="fill: none;"/><line x1="379" y1="415" x2="379" y2="415" stroke-width="0" marker-start="url(#sequencenumber)"/><text x="379" y="419" font-family="sans-serif" font-size="12px" text-anchor="middle" class="sequenceNumber">7</text><text x="1086" y="430" text-anchor="middle" dominant-baseline="middle" alignment-baseline="middle" class="messageText" dy="1em" style="font-size: 16px; font-weight: 400;">HNSW_search()</text><path d="M 1086,461 C 1146,451 1146,491 1086,481" class="messageLine0" stroke-width="2" stroke="none" marker-end="url(#arrowhead)" style="fill: none;"/><line x1="1086" y1="461" x2="1086" y2="461" stroke-width="0" marker-start="url(#sequencenumber)"/><text x="1086" y="465" font-family="sans-serif" font-size="12px" text-anchor="middle" class="sequenceNumber">8</text><text x="729" y="506" text-anchor="middle" dominant-baseline="middle" alignment-baseline="middle" class="messageText" dy="1em" style="font-size: 16px; font-weight: 400;">candidates[50]</text><line x1="1076" y1="535" x2="382" y2="535" class="messageLine1" stroke-width="2" stroke="none" marker-end="url(#arrowhead)" style="stroke-dasharray: 3, 3; fill: none;"/><line x1="1076" y1="535" x2="1076" y2="535" stroke-width="0" marker-start="url(#sequencenumber)"/><text x="1076" y="539" font-family="sans-serif" font-size="12px" text-anchor="middle" class="sequenceNumber">9</text><text x="826" y="550" text-anchor="middle" dominant-baseline="middle" alignment-baseline="middle" class="messageText" dy="1em" style="font-size: 16px; font-weight: 400;">get_graph_context(candidate_ids)</text><line x1="379" y1="581" x2="1273" y2="581" class="messageLine0" stroke-width="2" stroke="none" marker-end="url(#arrowhead)" style="fill: none;"/><line x1="379" y1="581" x2="379" y2="581" stroke-width="0" marker-start="url(#sequencenumber)"/><text x="379" y="585" font-family="sans-serif" font-size="12px" text-anchor="middle" class="sequenceNumber">10</text><text x="1286" y="596" text-anchor="middle" dominant-baseline="middle" alignment-baseline="middle" class="messageText" dy="1em" style="font-size: 16px; font-weight: 400;">MATCH paths</text><path d="M 1286,627 C 1346,617 1346,657 1286,647" class="messageLine0" stroke-width="2" stroke="none" marker-end="url(#arrowhead)" style="fill: none;"/><line x1="1286" y1="627" x2="1286" y2="627" stroke-width="0" marker-start="url(#sequencenumber)"/><text x="1286" y="631" font-family="sans-serif" font-size="12px" text-anchor="middle" class="sequenceNumber">11</text><text x="829" y="672" text-anchor="middle" dominant-baseline="middle" alignment-baseline="middle" class="messageText" dy="1em" style="font-size: 16px; font-weight: 400;">relationships[]</text><line x1="1276" y1="703" x2="382" y2="703" class="messageLine1" stroke-width="2" stroke="none" marker-end="url(#arrowhead)" style="stroke-dasharray: 3, 3; fill: none;"/><line x1="1276" y1="703" x2="1276" y2="703" stroke-width="0" marker-start="url(#sequencenumber)"/><text x="1276" y="707" font-family="sans-serif" font-size="12px" text-anchor="middle" class="sequenceNumber">12</text><text x="926" y="763" text-anchor="middle" dominant-baseline="middle" alignment-baseline="middle" class="messageText" dy="1em" style="font-size: 16px; font-weight: 400;">score(query, candidate, context)</text><line x1="379" y1="794" x2="1473" y2="794" class="messageLine0" stroke-width="2" stroke="none" marker-end="url(#arrowhead)" style="fill: none;"/><line x1="379" y1="794" x2="379" y2="794" stroke-width="0" marker-start="url(#sequencenumber)"/><text x="379" y="798" font-family="sans-serif" font-size="12px" text-anchor="middle" class="sequenceNumber">13</text><text x="1486" y="809" text-anchor="middle" dominant-baseline="middle" alignment-baseline="middle" class="messageText" dy="1em" style="font-size: 16px; font-weight: 400;">compute_semantic_sim()</text><path d="M 1486,840 C 1546,830 1546,870 1486,860" class="messageLine0" stroke-width="2" stroke="none" marker-end="url(#arrowhead)" style="fill: none;"/><line x1="1486" y1="840" x2="1486" y2="840" stroke-width="0" marker-start="url(#sequencenumber)"/><text x="1486" y="844" font-family="sans-serif" font-size="12px" text-anchor="middle" class="sequenceNumber">14</text><text x="1486" y="885" text-anchor="middle" dominant-baseline="middle" alignment-baseline="middle" class="messageText" dy="1em" style="font-size: 16px; font-weight: 400;">compute_recency()</text><path d="M 1486,916 C 1546,906 1546,946 1486,936" class="messageLine0" stroke-width="2" stroke="none" marker-end="url(#arrowhead)" style="fill: none;"/><line x1="1486" y1="916" x2="1486" y2="916" stroke-width="0" marker-start="url(#sequencenumber)"/><text x="1486" y="920" font-family="sans-serif" font-size="12px" text-anchor="middle" class="sequenceNumber">15</text><text x="1486" y="961" text-anchor="middle" dominant-baseline="middle" alignment-baseline="middle" class="messageText" dy="1em" style="font-size: 16px; font-weight: 400;">compute_importance()</text><path d="M 1486,992 C 1546,982 1546,1022 1486,1012" class="messageLine0" stroke-width="2" stroke="none" marker-end="url(#arrowhead)" style="fill: none;"/><line x1="1486" y1="992" x2="1486" y2="992" stroke-width="0" marker-start="url(#sequencenumber)"/><text x="1486" y="996" font-family="sans-serif" font-size="12px" text-anchor="middle" class="sequenceNumber">16</text><text x="1486" y="1037" text-anchor="middle" dominant-baseline="middle" alignment-baseline="middle" class="messageText" dy="1em" style="font-size: 16px; font-weight: 400;">weighted_combine()</text><path d="M 1486,1068 C 1546,1058 1546,1098 1486,1088" class="messageLine0" stroke-width="2" stroke="none" marker-end="url(#arrowhead)" style="fill: none;"/><line x1="1486" y1="1068" x2="1486" y2="1068" stroke-width="0" marker-start="url(#sequencenumber)"/><text x="1486" y="1072" font-family="sans-serif" font-size="12px" text-anchor="middle" class="sequenceNumber">17</text><text x="929" y="1113" text-anchor="middle" dominant-baseline="middle" alignment-baseline="middle" class="messageText" dy="1em" style="font-size: 16px; font-weight: 400;">score</text><line x1="1476" y1="1142" x2="382" y2="1142" class="messageLine1" stroke-width="2" stroke="none" marker-end="url(#arrowhead)" style="stroke-dasharray: 3, 3; fill: none;"/><line x1="1476" y1="1142" x2="1476" y2="1142" stroke-width="0" marker-start="url(#sequencenumber)"/><text x="1476" y="1146" font-family="sans-serif" font-size="12px" text-anchor="middle" class="sequenceNumber">18</text><text x="379" y="1167" text-anchor="middle" dominant-baseline="middle" alignment-baseline="middle" class="messageText" dy="1em" style="font-size: 16px; font-weight: 400;">sort_by_score()</text><path d="M 379,1198 C 439,1188 439,1228 379,1218" class="messageLine0" stroke-width="2" stroke="none" marker-end="url(#arrowhead)" style="fill: none;"/><line x1="379" y1="1198" x2="379" y2="1198" stroke-width="0" marker-start="url(#sequencenumber)"/><text x="379" y="1202" font-family="sans-serif" font-size="12px" text-anchor="middle" class="sequenceNumber">19</text><text x="379" y="1243" text-anchor="middle" dominant-baseline="middle" alignment-baseline="middle" class="messageText" dy="1em" style="font-size: 16px; font-weight: 400;">top_k(limit=10)</text><path d="M 379,1274 C 439,1264 439,1304 379,1294" class="messageLine0" stroke-width="2" stroke="none" marker-end="url(#arrowhead)" style="fill: none;"/><line x1="379" y1="1274" x2="379" y2="1274" stroke-width="0" marker-start="url(#sequencenumber)"/><text x="379" y="1278" font-family="sans-serif" font-size="12px" text-anchor="middle" class="sequenceNumber">20</text><text x="1026" y="1409" text-anchor="middle" dominant-baseline="middle" alignment-baseline="middle" class="messageText" dy="1em" style="font-size: 16px; font-weight: 400;">strengthen(memory_i, memory_j)</text><line x1="379" y1="1440" x2="1673" y2="1440" class="messageLine0" stroke-width="2" stroke="none" marker-end="url(#arrowhead)" style="fill: none;"/><line x1="379" y1="1440" x2="379" y2="1440" stroke-width="0" marker-start="url(#sequencenumber)"/><text x="379" y="1444" font-family="sans-serif" font-size="12px" text-anchor="middle" class="sequenceNumber">21</text><text x="1686" y="1455" text-anchor="middle" dominant-baseline="middle" alignment-baseline="middle" class="messageText" dy="1em" style="font-size: 16px; font-weight: 400;">dw = eta * DA * co_retrieval</text><path d="M 1686,1486 C 1746,1476 1746,1516 1686,1506" class="messageLine0" stroke-width="2" stroke="none" marker-end="url(#arrowhead)" style="fill: none;"/><line x1="1686" y1="1486" x2="1686" y2="1486" stroke-width="0" marker-start="url(#sequencenumber)"/><text x="1686" y="1490" font-family="sans-serif" font-size="12px" text-anchor="middle" class="sequenceNumber">22</text><text x="1029" y="1531" text-anchor="middle" dominant-baseline="middle" alignment-baseline="middle" class="messageText" dy="1em" style="font-size: 16px; font-weight: 400;">updated</text><line x1="1676" y1="1562" x2="382" y2="1562" class="messageLine1" stroke-width="2" stroke="none" marker-end="url(#arrowhead)" style="stroke-dasharray: 3, 3; fill: none;"/><line x1="1676" y1="1562" x2="1676" y2="1562" stroke-width="0" marker-start="url(#sequencenumber)"/><text x="1676" y="1566" font-family="sans-serif" font-size="12px" text-anchor="middle" class="sequenceNumber">23</text><text x="1226" y="1677" text-anchor="middle" dominant-baseline="middle" alignment-baseline="middle" class="messageText" dy="1em" style="font-size: 16px; font-weight: 400;">update(memory_id, activation)</text><line x1="379" y1="1708" x2="2073" y2="1708" class="messageLine0" stroke-width="2" stroke="none" marker-end="url(#arrowhead)" style="fill: none;"/><line x1="379" y1="1708" x2="379" y2="1708" stroke-width="0" marker-start="url(#sequencenumber)"/><text x="379" y="1712" font-family="sans-serif" font-size="12px" text-anchor="middle" class="sequenceNumber">24</text><text x="1229" y="1723" text-anchor="middle" dominant-baseline="middle" alignment-baseline="middle" class="messageText" dy="1em" style="font-size: 16px; font-weight: 400;">trace_updated</text><line x1="2076" y1="1754" x2="382" y2="1754" class="messageLine1" stroke-width="2" stroke="none" marker-end="url(#arrowhead)" style="stroke-dasharray: 3, 3; fill: none;"/><line x1="2076" y1="1754" x2="2076" y2="1754" stroke-width="0" marker-start="url(#sequencenumber)"/><text x="2076" y="1758" font-family="sans-serif" font-size="12px" text-anchor="middle" class="sequenceNumber">25</text><text x="1126" y="1869" text-anchor="middle" dominant-baseline="middle" alignment-baseline="middle" class="messageText" dy="1em" style="font-size: 16px; font-weight: 400;">update_on_retrieval(memory_id, was_helpful=true)</text><line x1="379" y1="1900" x2="1873" y2="1900" class="messageLine0" stroke-width="2" stroke="none" marker-end="url(#arrowhead)" style="fill: none;"/><line x1="379" y1="1900" x2="379" y2="1900" stroke-width="0" marker-start="url(#sequencenumber)"/><text x="379" y="1904" font-family="sans-serif" font-size="12px" text-anchor="middle" class="sequenceNumber">26</text><text x="1886" y="1915" text-anchor="middle" dominant-baseline="middle" alignment-baseline="middle" class="messageText" dy="1em" style="font-size: 16px; font-weight: 400;">bayesian_update()</text><path d="M 1886,1946 C 1946,1936 1946,1976 1886,1966" class="messageLine0" stroke-width="2" stroke="none" marker-end="url(#arrowhead)" style="fill: none;"/><line x1="1886" y1="1946" x2="1886" y2="1946" stroke-width="0" marker-start="url(#sequencenumber)"/><text x="1886" y="1950" font-family="sans-serif" font-size="12px" text-anchor="middle" class="sequenceNumber">27</text><text x="1129" y="1991" text-anchor="middle" dominant-baseline="middle" alignment-baseline="middle" class="messageText" dy="1em" style="font-size: 16px; font-weight: 400;">updated</text><line x1="1876" y1="2022" x2="382" y2="2022" class="messageLine1" stroke-width="2" stroke="none" marker-end="url(#arrowhead)" style="stroke-dasharray: 3, 3; fill: none;"/><line x1="1876" y1="2022" x2="1876" y2="2022" stroke-width="0" marker-start="url(#sequencenumber)"/><text x="1876" y="2026" font-family="sans-serif" font-size="12px" text-anchor="middle" class="sequenceNumber">28</text><text x="224" y="2057" text-anchor="middle" dominant-baseline="middle" alignment-baseline="middle" class="messageText" dy="1em" style="font-size: 16px; font-weight: 400;">{memories: [...], scores: [...]}</text><line x1="369" y1="2086" x2="79" y2="2086" class="messageLine1" stroke-width="2" stroke="none" marker-end="url(#arrowhead)" style="stroke-dasharray: 3, 3; fill: none;"/><line x1="369" y1="2086" x2="369" y2="2086" stroke-width="0" marker-start="url(#sequencenumber)"/><text x="369" y="2090" font-family="sans-serif" font-size="12px" text-anchor="middle" class="sequenceNumber">29</text></svg>